TITLE ""
FILE "DISC1Track06.mp3" MP3
  TRACK 01 AUDIO
    TITLE "DISC1Track06_01"
    INDEX 01 00:00:00
  TRACK 02 AUDIO
    TITLE "DISC1Track06_02"
    INDEX 01 00:01:31
  TRACK 03 AUDIO
    TITLE "DISC1Track06_03"
    INDEX 01 00:01:51
  TRACK 04 AUDIO
    TITLE "DISC1Track06_04"
    INDEX 01 00:04:59
  TRACK 05 AUDIO
    TITLE "DISC1Track06_05"
    INDEX 01 00:08:22
  TRACK 06 AUDIO
    TITLE "DISC1Track06_06"
    INDEX 01 00:11:36
  TRACK 07 AUDIO
    TITLE "DISC1Track06_07"
    INDEX 01 00:11:51
  TRACK 08 AUDIO
    TITLE "DISC1Track06_08"
    INDEX 01 00:14:36
  TRACK 09 AUDIO
    TITLE "DISC1Track06_09"
    INDEX 01 00:18:06
  TRACK 10 AUDIO
    TITLE "DISC1Track06_10"
    INDEX 01 00:21:26
  TRACK 11 AUDIO
    TITLE "DISC1Track06_11"
    INDEX 01 00:21:36
  TRACK 12 AUDIO
    TITLE "DISC1Track06_12"
    INDEX 01 00:24:72
  TRACK 13 AUDIO
    TITLE "DISC1Track06_13"
    INDEX 01 00:28:48
  TRACK 14 AUDIO
    TITLE "DISC1Track06_14"
    INDEX 01 00:31:64
  TRACK 15 AUDIO
    TITLE "DISC1Track06_15"
    INDEX 01 00:32:06
  TRACK 16 AUDIO
    TITLE "DISC1Track06_16"
    INDEX 01 00:35:30
  TRACK 17 AUDIO
    TITLE "DISC1Track06_17"
    INDEX 01 00:38:34
  TRACK 18 AUDIO
    TITLE "DISC1Track06_18"
    INDEX 01 00:41:11
  TRACK 19 AUDIO
    TITLE "DISC1Track06_19"
    INDEX 01 00:41:25
  TRACK 20 AUDIO
    TITLE "DISC1Track06_20"
    INDEX 01 00:44:68
  TRACK 21 AUDIO
    TITLE "DISC1Track06_21"
    INDEX 01 00:48:54
  TRACK 22 AUDIO
    TITLE "DISC1Track06_22"
    INDEX 01 00:52:15
  TRACK 23 AUDIO
    TITLE "DISC1Track06_23"
    INDEX 01 00:52:31
  TRACK 24 AUDIO
    TITLE "DISC1Track06_24"
    INDEX 01 00:55:19
  TRACK 25 AUDIO
    TITLE "DISC1Track06_25"
    INDEX 01 00:59:44
  TRACK 26 AUDIO
    TITLE "DISC1Track06_26"
    INDEX 01 01:03:40
  TRACK 27 AUDIO
    TITLE "DISC1Track06_27"
    INDEX 01 01:03:56
  TRACK 28 AUDIO
    TITLE "DISC1Track06_28"
    INDEX 01 01:06:72
  TRACK 29 AUDIO
    TITLE "DISC1Track06_29"
    INDEX 01 01:10:48
  TRACK 30 AUDIO
    TITLE "DISC1Track06_30"
    INDEX 01 01:13:66
  TRACK 31 AUDIO
    TITLE "DISC1Track06_31"
    INDEX 01 01:14:03
  TRACK 32 AUDIO
    TITLE "DISC1Track06_32"
    INDEX 01 01:17:25
  TRACK 33 AUDIO
    TITLE "DISC1Track06_33"
    INDEX 01 01:20:37
  TRACK 34 AUDIO
    TITLE "DISC1Track06_34"
    INDEX 01 01:23:16
  TRACK 35 AUDIO
    TITLE "DISC1Track06_35"
    INDEX 01 01:23:31
  TRACK 36 AUDIO
    TITLE "DISC1Track06_36"
    INDEX 01 01:27:19
  TRACK 37 AUDIO
    TITLE "DISC1Track06_37"
    INDEX 01 01:31:17
  TRACK 38 AUDIO
    TITLE "DISC1Track06_38"
    INDEX 01 01:34:62
  TRACK 39 AUDIO
    TITLE "DISC1Track06_39"
    INDEX 01 01:35:03
  TRACK 40 AUDIO
    TITLE "DISC1Track06_40"
    INDEX 01 01:39:20
  TRACK 41 AUDIO
    TITLE "DISC1Track06_41"
    INDEX 01 01:44:27
  TRACK 42 AUDIO
    TITLE "DISC1Track06_42"
    INDEX 01 01:49:01
